<svg width="16" height="16" viewBox="0 0 16 16" fill="none" xmlns="http://www.w3.org/2000/svg">
<path d="M6.30469 8.07031C6.30469 8.8125 6.13802 9.4401 5.80469 9.95312C5.47135 10.4635 4.99219 10.8125 4.36719 11C4.06771 11.0885 3.74219 11.1328 3.39062 11.1328C3.04167 11.1328 2.69141 11.0703 2.33984 10.9453C1.98828 10.8177 1.67318 10.6393 1.39453 10.4102C1.11849 10.1784 0.897135 9.88281 0.730469 9.52344C0.563802 9.16406 0.480469 8.76823 0.480469 8.33594C0.480469 7.52865 0.666667 6.8737 1.03906 6.37109C1.41146 5.86849 1.94792 5.52344 2.64844 5.33594C2.89062 5.27083 3.14844 5.23828 3.42188 5.23828C3.69792 5.23828 3.97526 5.27604 4.25391 5.35156C4.53255 5.42708 4.79427 5.54297 5.03906 5.69922C5.28646 5.85547 5.50521 6.04167 5.69531 6.25781C6.10156 6.72135 6.30469 7.32552 6.30469 8.07031ZM2.26562 9.91406C2.42708 10.1224 2.61458 10.2826 2.82812 10.3945C3.04167 10.5065 3.26693 10.5625 3.50391 10.5625C3.74089 10.5625 3.95052 10.5195 4.13281 10.4336C4.31771 10.3477 4.46875 10.2344 4.58594 10.0938C4.70312 9.95052 4.80078 9.78125 4.87891 9.58594C5.01953 9.23438 5.08984 8.81771 5.08984 8.33594C5.08984 7.60417 4.91667 7.0013 4.57031 6.52734C4.22396 6.05339 3.79948 5.81641 3.29688 5.81641C3.09896 5.81641 2.90625 5.85286 2.71875 5.92578C2.53385 5.9987 2.3737 6.11589 2.23828 6.27734C2.10547 6.4362 2.00521 6.61979 1.9375 6.82812C1.80729 7.21354 1.74219 7.61328 1.74219 8.02734C1.74219 8.44141 1.78906 8.80729 1.88281 9.125C1.97656 9.44271 2.10417 9.70573 2.26562 9.91406ZM9.29297 4.625L9.26172 4.70312C8.69661 6.11719 8.41406 7.41406 8.41406 8.59375C8.41406 9.54427 8.59375 10.5521 8.95312 11.6172C9.03385 11.8594 9.10286 12.0443 9.16016 12.1719L9.24609 12.3594C9.16797 12.526 9.02865 12.6094 8.82812 12.6094C8.53646 12.2448 8.2474 11.7318 7.96094 11.0703C7.58073 10.2031 7.39062 9.36068 7.39062 8.54297C7.39062 8.12891 7.4401 7.70312 7.53906 7.26562C7.63802 6.82552 7.75781 6.44141 7.89844 6.11328C8.1875 5.4388 8.44792 4.9349 8.67969 4.60156L8.82812 4.39062C9.03906 4.39062 9.19401 4.46875 9.29297 4.625ZM12.2148 5.53516L12.168 6.80078V9.75391C12.168 10.0378 12.1836 10.3854 12.2148 10.7969L12.2305 11C12.0091 11.0677 11.7669 11.1016 11.5039 11.1016C11.2409 11.1016 11.0677 11.0677 10.9844 11C11.0599 10.4505 11.0977 10.0312 11.0977 9.74219V7.04688C11.0977 6.80469 11.1146 6.55859 11.1484 6.30859L11.168 6.18359C10.7383 6.56641 10.3594 6.83073 10.0312 6.97656C10.026 6.96875 10.0091 6.94661 9.98047 6.91016C9.95182 6.8737 9.92708 6.83984 9.90625 6.80859C9.83854 6.71484 9.79557 6.63411 9.77734 6.56641C9.88151 6.44922 10.1302 6.20703 10.5234 5.83984C10.9167 5.47266 11.168 5.27995 11.2773 5.26172C11.3867 5.24089 11.5169 5.23047 11.668 5.23047C11.8216 5.23047 11.9883 5.26302 12.168 5.32812C12.1992 5.36979 12.2148 5.4388 12.2148 5.53516ZM13.1953 4.625C13.2943 4.46875 13.4492 4.39062 13.6602 4.39062C13.9414 4.74219 14.2318 5.27083 14.5312 5.97656C14.9115 6.86198 15.1016 7.71745 15.1016 8.54297C15.1016 9.32682 14.9128 10.1693 14.5352 11.0703C14.3945 11.4036 14.2396 11.707 14.0703 11.9805C13.9036 12.2565 13.7943 12.4297 13.7422 12.5L13.6602 12.6094C13.4596 12.6094 13.3203 12.526 13.2422 12.3594C13.3073 12.2292 13.3958 12.0052 13.5078 11.6875C13.6198 11.3724 13.7122 11.0755 13.7852 10.7969C13.9779 10.0599 14.0742 9.32552 14.0742 8.59375C14.0742 7.41146 13.7917 6.11458 13.2266 4.70312L13.1953 4.625Z" fill="black" fill-opacity="0.85"/>
</svg>
